<?xml version="1.0" encoding="utf-8"?>
<!-- Generator: Adobe Illustrator 26.2.1, SVG Export Plug-In . SVG Version: 6.00 Build 0)  -->
<svg version="1.1" id="Layer_1" xmlns="http://www.w3.org/2000/svg" xmlns:xlink="http://www.w3.org/1999/xlink" x="0px" y="0px"
	 viewBox="0 0 500 119" style="enable-background:new 0 0 500 119;" xml:space="preserve">
<style type="text/css">
	.st0{fill:#EF4135;}
</style>
<g>
	<g>
		<path class="st0" d="M264.3,14.9c0,0-130.8,0-138.3,0c-14.2,0-23.5,7.4-24.9,18.6c-0.5,4.1-1,7.7-1,7.7h184.3c0,0,0.3-2.7,0.6-4.9
			C286.4,25.1,281.7,14.9,264.3,14.9"/>
		<path class="st0" d="M283.2,51.3c0,0-0.4,3.7-1,7.8c-1.1,8-7.1,14-18.2,14h-39.2l-4.4,35.7h-31.2l7.1-57.5H283.2"/>
		<polygon class="st0" points="97.1,14.9 93.9,41.2 10.3,41.2 13.5,14.9 		"/>
		<polyline class="st0" points="9.1,51.3 92.6,51.3 89.9,73 37.6,73 36.3,83.8 88.6,83.8 85.6,108.7 2,108.7 9.1,51.3 		"/>
		<path class="st0" d="M294,14.9c0,0,51.5,0,68.1,0c10.8,0,21.9,5,19.7,22.3c-0.4,3.1-0.5,4.1-0.5,4.1h-90.6L294,14.9"/>
		<polyline class="st0" points="289.5,51.3 320.8,51.3 313.7,108.7 282.5,108.7 289.5,51.3 		"/>
		<polyline class="st0" points="348.9,51.3 380.2,51.3 373.1,108.7 341.9,108.7 348.9,51.3 		"/>
		<path class="st0" d="M167.6,51.3c-5.4,0-58,0-68.6,0c-2.3,15,5.2,21.8,15.9,21.8c5.8,0,42.3,0,42.3,0l-1.3,10.8H95.1L92,108.8
			c0,0,66.2,0,68.9,0c2.2-0.2,17.7-0.6,23-13.3c1.7-4.1,3.2-18.9,3.6-22C189.8,55.6,177.4,51.3,167.6,51.3"/>
	</g>
	<path class="st0" d="M414.9,15.2L484,15c0,0,15-0.7,13.9,11.6l-3.5,35.6c0,0-1.5,10.6-11.6,10.6h-41.2l-1.2,11.4h51.8l-2.6,24.6
		h-85.9l5.3-44.4c0,0,0.5-12.8,12.1-12.8H462l0.9-11.2h-51.2L414.9,15.2z"/>
</g>
</svg>
