<?xml version="1.0" encoding="utf-8"?>
<!-- Generator: Adobe Illustrator 27.5.0, SVG Export Plug-In . SVG Version: 6.00 Build 0)  -->
<svg version="1.1" id="Layer_1" xmlns="http://www.w3.org/2000/svg" xmlns:xlink="http://www.w3.org/1999/xlink" x="0px" y="0px"
	 viewBox="0 0 494 494" style="enable-background:new 0 0 494 494;" xml:space="preserve">
<style type="text/css">
	.st0{fill:#FFFFFF;}
	.st1{fill:#1D428A;}
	.st2{fill:#C8102E;}
</style>
<g>
	<g>
		<path class="st0" d="M442.5,0h-391C22.5,0,0,22.5,0,51.5v391c0,29,22.5,51.5,51.5,51.5h391c29,0,51.5-22.5,51.5-51.5v-391
			C492.3,22.5,469.8,0,442.5,0z"/>
		<path class="st1" d="M160.9,434.4c-6.4-4.8-1.6-8-1.6-9.7c-4.8-17.7-17.7-27.4-11.3-33.8c-1.6-6.4-4.8-12.9-4.8-12.9
			c-20.9-12.9-38.6-32.2-41.8-35.4c-3.2-4.8-9.7-8-11.3-11.3c-4.8-4.8-30.6-40.2-35.4-53.1H43.5c-4.8-19.3-19.3-33.8-20.9-53.1
			c0-6.4,3.2-22.5,4.8-25.7c1.6-3.2,6.4-8,6.4-8v-4.8c-22.5,0-16.1-1.6-19.3-9.7c-3.2-6.4,0-8,0-11.3c3.2-12.9,12.9-30.6,16.1-40.2
			c1.6-4.8,4.8-14.5,4.8-14.5c16.1-33.7,22.5-30.5,41.8-32.1l1.6-1.6c19.3-1.6,16.1-1.6,19.3-20.9l-1.6-8c-1.6-9.7,3.2-8,4.8-8
			c0-17.7,1.6-22.5,14.5-27.4H51.5c-20.9,0-38.6,17.7-38.6,38.6v391c0,20.9,17.7,38.6,38.6,38.6h115.8
			C152.9,473,160.9,460.1,160.9,434.4"/>
	</g>
	<path class="st2" d="M442.5,11.2H128.7c6.4,1.6,9.7,4.8,11.3,8c4.8,0,11.3,11.3,1.6,27.4c3.2,3.2,1.6,6.4-1.6,11.3
		c-1.6,1.6-1.6,4.8-4.8,3.2c-3.2,8-6.4,16.1-9.7,16.1c-1.6,1.6-1.6,4.8,0,6.4c4.8,1.6,9.7,4.8,12.9,8v1.6c3.2,1.6,4.8,3.2,9.7,6.4
		c9.7,6.4,20.9,16.1,19.3,53.1c3.2,8,3.2,24.1,6.4,29c4.8,9.7,8,16.1,9.7,25.7c0,0,1.6,12.9,3.2,14.5c0,0,0,0,1.6,0
		c8,1.6,6.4,3.2,6.4,4.8l1.6,1.6c1.6,1.6,4.8,1.6,4.8,6.4l0,0c0,1.6,1.6,1.6,1.6,3.2c1.6,1.6,1.6,3.2,3.2,4.8l0,0
		c1.6,3.2,1.6,8,1.6,12.9c0,4.8,0,8-1.6,12.9v1.6c-3.2,8-8,14.5-16.1,17.7l0,0c0,0,0,0-1.6,0c-4.8,1.6-9.7,3.2-14.5,3.2
		c-19.3,0-35.4-16.1-35.4-35.4c0-16.1,11.3-30.6,25.7-33.8c-4.8-9.7-12.9-25.7-14.5-30.6s-8-38.6-9.7-45c0-1.6-14.5,8-14.5,9.7
		c-1.6,1.6-11.3,27.4-11.3,29s0,4.8,0,4.8s4.8,0,8,9.7c3.2,8,11.3,40.2,11.3,40.2s-1.6,3.2-3.2,1.6c11.3,37,6.4,53.1,12.9,62.7
		c6.4,14.5,8,12.9,12.9,25.7c3.2,9.7,8,46.7,9.7,48.3c6.4,8,9.7,12.9,9.7,17.7c0,4.8-4.8,16.1-3.2,24.1c1.6,4.8,1.6,14.5,3.2,16.1
		c0,0,1.6,3.2,1.6,4.8v1.6c3.2,11.3,14.5,30.6-3.2,41.8h-1.6h270.3c20.9,0,38.6-17.7,38.6-38.6v-394
		C481.1,28.9,463.4,11.2,442.5,11.2z"/>
	<path class="st0" d="M434.4,104.5h-38.6l-9.7,143.2l-6.4,93.3l-6.4-93.3l-9.7-143.2h-40.2L354,387.7h49.9L434.4,104.5z
		 M217.2,139.9h29v247.8h38.6V139.9h29v-35.4h-96.5C217.2,104.5,217.2,139.9,217.2,139.9z"/>
	<path class="st0" d="M72.4,456.9v-70.8h14.5c8,0,12.9,4.8,12.9,14.5v11.3c0,6.4-1.6,9.7-4.8,11.3c3.2,1.6,4.8,4.8,4.8,9.7v9.7
		c0,9.7-4.8,14.5-12.9,14.5C86.9,456.9,72.4,456.9,72.4,456.9z M82.1,426.3v22.5h3.2c3.2,0,4.8-1.6,4.8-4.8v-11.3
		c0-3.2-1.6-4.8-4.8-4.8h-3.2V426.3z M82.1,394.1v24.1h3.2c3.2,0,4.8-1.6,4.8-4.8v-12.9c0-3.2-1.6-4.8-4.8-4.8h-3.2V394.1z
		 M122.3,442.4h-9.7v14.5h-9.7l8-70.8h12.9l8,70.8h-9.5V442.4z M117.5,394.1L117.5,394.1c-1.6,8-1.6,24.1-3.2,29l-1.6,12.9h8
		l-1.6-12.9C119.1,416.7,119.1,402.2,117.5,394.1 M45.1,456.9h-8v-70.8H50L61.3,444c-1.6-14.5-1.6-30.6-1.6-45v-12.9h8v70.8h-13
		l-11.3-56.3c0,12.9,1.6,24.1,1.6,33.8L45.1,456.9L45.1,456.9z"/>
</g>
</svg>
