<svg width="300" height="120" viewBox="0 0 300 120" fill="none" xmlns="http://www.w3.org/2000/svg">
<g clip-path="url(#clip0_234_2552)">
<path d="M5.49789 74.7848C8.61157 77.4432 13.287 78.7699 19.5241 78.7699C25.7613 78.7699 30.2507 77.4872 33.5504 74.9219C36.8501 72.1705 38.5 68.3224 38.5 63.3729C38.5 61.0817 38.0495 58.9716 36.9872 57.0476C36.0129 55.2851 34.3582 53.6255 32.3558 52.6267C31.0878 51.9952 30.3143 51.7161 28.7526 51.2364C27.0684 50.7174 18.6821 48.4311 17.8302 48.2059C13.1548 47.0652 10.188 45.5084 10.1684 42.7472C10.4083 37.4011 15.3921 36.9702 18.1435 36.9702C20.8949 36.9702 23.2302 37.5675 24.8801 38.7572C27.842 41.0631 27.5091 43.9858 27.5091 43.9858H36.8403C36.6543 39.4034 35.0044 35.6827 31.8907 32.8431C28.875 30.2827 24.5618 29 18.9709 29C13.0128 29 8.47939 30.2386 5.36081 32.711C2.24714 35.2812 0.685401 38.811 0.685401 43.3004C0.700088 49.0725 3.4368 52.4701 5.90914 54.0269C7.41702 54.9277 10.8342 56.3083 15.26 57.1896L18.9758 57.9974C25.4235 59.5689 29.1246 61.5614 29.0071 64.7486C28.9386 66.6726 28.2728 68.1413 26.809 69.1498C25.4675 70.0702 23.1861 70.6626 20.3466 70.6626C17.135 70.6626 14.6186 70.0212 12.7827 68.7386C11.0399 67.637 9.98727 65.713 9.62009 62.9616H0C0.27416 68.1854 2.10516 72.1264 5.49789 74.7848Z" fill="black"/>
<path d="M49.8629 86.9795C49.8629 89.442 47.9487 91.6794 45.163 91.6794H40.4631V57.2673C41.0115 48.1123 44.3405 40.8177 58.2444 40.3184C64.2563 40.3967 68.6233 42.7858 71.2034 45.8016C73.9694 49.395 75.1493 53.8599 75.1493 59.4753C75.1493 65.0907 73.7687 69.9766 71.0026 73.5701C68.2415 77.0705 64.6921 78.8183 60.3642 78.8183C53.8676 78.8183 50.7148 76.1159 49.858 75.6067C49.858 75.92 49.858 86.9697 49.858 86.9697L49.8629 86.9795ZM65.6173 59.8963C65.6173 56.3029 64.9564 48.7047 57.6031 48.7047C50.2497 48.7047 49.8629 56.1217 49.8629 59.8963C49.8629 69.4577 55.2972 70.6767 57.8772 70.6767C64.555 70.6767 65.6125 63.5926 65.6125 59.8963H65.6173Z" fill="black"/>
<path d="M94.1104 48.4312C100.02 48.3528 100.935 53.3807 101.121 55.858H87.0997C87.0997 55.858 86.9822 48.5634 94.1104 48.4312ZM94.5216 70.5696C92.1423 70.4521 87.604 69.9821 87.1878 62.0462H111.015C111.015 61.8063 111.015 59.1969 111.02 59.192C110.854 53.2143 109.419 48.7543 106.619 45.4105C103.593 42.1108 99.3292 40.4609 93.8313 40.4609C88.3334 40.4609 84.5295 42.1598 81.5969 45.5476C78.7525 48.8473 77.3328 53.4297 77.3328 59.2948C77.3328 65.1598 78.7966 70.1584 81.734 73.4581C84.6665 76.8508 88.7496 78.5447 93.9684 78.5447C98.2767 78.5447 101.851 77.4922 104.695 75.3821C107.534 73.37 109.473 70.4227 110.482 66.5747H102.203C100.984 70.0311 97.8703 70.741 94.5216 70.5745V70.5696Z" fill="black"/>
<path d="M137.291 66.5843H146.328C146.328 66.5843 143.876 78.5445 130.221 78.5445C116.567 78.5445 113.209 67.5879 113.209 60.3912C113.209 53.1945 114.487 40.8964 129.693 40.4656C143.738 40.2551 146.054 52.4258 146.054 52.4258H136.434C136.434 52.4258 135.499 48.3085 129.771 48.4407C124.043 48.568 122.545 53.9484 122.545 59.0644C122.545 64.1805 123.818 70.5743 130.177 70.5743C136.224 70.7603 136.757 67.49 137.291 66.5892V66.5843Z" fill="black"/>
<path d="M157.995 51.055H163.649V41.4202H158.009V35.2321C158.009 33.5332 157.065 30.5566 153.471 30.5566H148.521V70.9806C148.521 75.1958 150.157 77.7171 153.696 77.7171C153.735 77.7171 157.848 77.7171 158 77.7171V51.055H157.995Z" fill="black"/>
<path d="M173.72 77.791V58.9523C173.72 56.2009 174.361 54.1887 175.644 52.9012C176.926 51.6136 178.894 50.9771 181.558 50.9771H184.72V41.2151C184.72 41.2151 179.741 41.0927 176.128 42.1795C173.808 42.8747 171.752 43.8294 170.009 45.2051C168.173 46.6738 166.729 48.6223 165.676 51.0506C164.623 53.4789 164.095 56.4799 164.095 60.0587V77.7959H173.72V77.791Z" fill="black"/>
<path d="M187.438 41.2734H197.062V64.6456C197.062 64.6456 196.715 70.966 203.388 70.9709C209.679 70.9709 209.84 65.3163 209.845 64.9149V45.8118C209.845 45.8118 210.168 41.2783 214.344 41.2783H219.338C219.338 41.2783 219.333 62.7803 219.338 62.986C219.269 64.1707 220.601 78.5446 203.388 78.4907C186.336 78.4907 187.545 63.9455 187.438 63.0888V41.2734Z" fill="black"/>
<path d="M254.093 77.9077H244.561V54.4131C244.561 51.7058 243.445 48.0585 238.064 48.0585C232.684 48.0585 231.71 52.2052 231.71 54.4131V77.9028H222.036V56.3518C222.036 50.0902 223.891 46.2618 226.941 43.7747C229.962 41.3122 233.825 40.5044 237.785 40.3184C239.905 40.3184 241.976 40.5485 244.003 41.0087C246.03 41.4689 247.87 42.3892 249.53 43.7747C250.911 42.5802 252.546 41.7283 254.436 41.2192C256.32 40.7149 258.279 40.333 260.306 40.3233C272.104 40.2596 276.838 45.6645 277.23 47.3976C277.23 47.4221 277.23 77.9077 277.23 77.9077H271.771C270.391 77.9077 267.071 76.9677 267.071 73.2078V54.4131C267.096 51.7499 266.166 48.0585 260.575 48.0585C254.984 48.0585 254.078 52.2052 254.078 54.4131V77.9028L254.093 77.9077Z" fill="black"/>
<path d="M279.918 47.3789V77.8646L300 62.6242L279.918 47.3789Z" fill="black"/>
</g>
<defs>
<clipPath id="clip0_234_2552">
<rect width="300" height="62.675" fill="white" transform="translate(0 29)"/>
</clipPath>
</defs>
</svg>
